<svg width="16" height="17" viewBox="0 0 16 17" fill="none" xmlns="http://www.w3.org/2000/svg">
<g id="female" clip-path="url(#clip0_8_923)">
<path id="Vector" d="M7.99995 0.5C9.10451 0.5 9.99995 1.39544 9.99995 2.5C9.99995 3.60456 9.10451 4.5 7.99995 4.5C6.89539 4.5 5.99995 3.60456 5.99995 2.5C5.99995 1.39544 6.89539 0.5 7.99995 0.5ZM11.7275 11.5681L10.2275 5.56809C10.187 5.40583 10.0933 5.26178 9.9615 5.15885C9.82967 5.05591 9.66721 5 9.49995 5H9.14495C8.43523 5.32634 7.59526 5.34044 6.85495 5H6.49995C6.33269 5 6.17023 5.05591 6.0384 5.15885C5.90657 5.26178 5.81292 5.40583 5.77236 5.56809L4.27236 11.5681C4.15417 12.0408 4.51192 12.5 4.99995 12.5H6.74995V15.75C6.74995 16.1642 7.08573 16.5 7.49995 16.5H8.49995C8.91417 16.5 9.24995 16.1642 9.24995 15.75V12.5H11C11.4872 12.5 11.8459 12.0415 11.7275 11.5681Z" fill="#DBDBE1"/>
</g>
<defs>
<clipPath id="clip0_8_923">
<rect width="16" height="16" fill="white" transform="translate(0 0.5)"/>
</clipPath>
</defs>
</svg>
