<svg width="16" height="17" fill="none" xmlns="http://www.w3.org/2000/svg"><g clip-path="url(#clip0_8_919)"><path d="M15 12.5c-.876 0-.977-1-2.328-1-1.357 0-1.463 1-2.336 1-.866 0-.983-1-2.336-1-1.339 0-1.476 1-2.328 1-.88 0-.975-1-2.336-1-1.36 0-1.458 1-2.336 1V10a1.5 1.5 0 011.5-1.5H3V4h2v4.5h2V4h2v4.5h2V4h2v4.5h.5A1.5 1.5 0 0115 10v2.5zm0 4H1v-3c1.355 0 1.461-1 2.336-1 .873 0 .977 1 2.336 1 1.339 0 1.475-1 2.328-1 .88 0 .975 1 2.336 1 1.355 0 1.461-1 2.336-1 .859 0 .976 1 2.328 1v3zM4 3.5c-.555 0-1-.445-1-1 0-.969 1-.719 1-2 .375 0 1 .922 1 1.75S4.555 3.5 4 3.5zm4 0c-.555 0-1-.445-1-1 0-.969 1-.719 1-2 .375 0 1 .922 1 1.75S8.555 3.5 8 3.5zm4 0c-.555 0-1-.445-1-1 0-.969 1-.719 1-2 .375 0 1 .922 1 1.75s-.445 1.25-1 1.25z" fill="#DBDBE1"/></g><defs><clipPath id="clip0_8_919"><path fill="#fff" transform="translate(0 .5)" d="M0 0h16v16H0z"/></clipPath></defs></svg>