<svg width="16" height="17" fill="none" xmlns="http://www.w3.org/2000/svg"><g clip-path="url(#clip0_8_915)"><path d="M15.543 11.806l-3.5-1.5a.75.75 0 00-.875.216l-1.55 1.894a11.583 11.583 0 01-5.537-5.537l1.894-1.55a.748.748 0 00.216-.875l-1.5-3.5a.755.755 0 00-.86-.435l-3.25.75A.75.75 0 000 2c0 8.016 6.497 14.5 14.5 14.5a.75.75 0 00.731-.581l.75-3.25a.76.76 0 00-.438-.863z" fill="#DBDBE1"/></g><defs><clipPath id="clip0_8_915"><path fill="#fff" transform="translate(0 .5)" d="M0 0h16v16H0z"/></clipPath></defs></svg>