<svg width="17" height="17" fill="none" xmlns="http://www.w3.org/2000/svg"><path fill-rule="evenodd" clip-rule="evenodd" d="M11.875 9.639l-.753-2.097a.267.267 0 11.502-.18l.503 1.397.502-1.398a.266.266 0 01.503 0l.502 1.398.503-1.398a.266.266 0 11.502.181l-.754 2.097a.266.266 0 01-.503 0L12.88 8.24l-.503 1.398a.266.266 0 01-.502 0zm-6.858 5.565a8.15 8.15 0 01-.777-1.388 9.898 9.898 0 00-1.611.613 8.007 8.007 0 003.333 1.818 5.425 5.425 0 01-.945-1.043zm2.715 1.292c-.824-.102-1.606-.65-2.279-1.6a7.489 7.489 0 01-.69-1.218 13.911 13.911 0 012.97-.367v3.185zm2.843-1.6a7.49 7.49 0 00.69-1.218 13.91 13.91 0 00-2.999-.367V16.5c.835-.093 1.629-.643 2.31-1.605zm2.825-.467a8.007 8.007 0 01-3.333 1.818c.333-.278.65-.627.945-1.043.288-.408.548-.875.776-1.388a9.899 9.899 0 011.612.613zm-.775-3.48c-.14.843-.356 1.644-.634 2.37.652.191 1.262.43 1.813.716a8.038 8.038 0 001.842-3.086h-3.021zm-4.359 0h3.817c-.139.797-.345 1.55-.61 2.23-1-.247-2.085-.385-3.207-.402v-1.828zm-4.23 2.37c-.651.191-1.26.431-1.812.716a8.039 8.039 0 01-1.841-3.086h3.02c.141.843.357 1.644.632 2.37zm3.696-2.37H3.946c.138.797.345 1.55.61 2.23a14.41 14.41 0 013.176-.402v-1.828zM4.555 3.82a11.86 11.86 0 00-.61 2.23h3.787V4.223a14.398 14.398 0 01-3.177-.402zm-.52-.14a12.467 12.467 0 00-.631 2.37H.383a8.036 8.036 0 011.841-3.086c.551.285 1.16.525 1.811.716zm.205-.496a8.24 8.24 0 01.777-1.39c.294-.415.61-.764.945-1.042A8.007 8.007 0 002.629 2.57a9.916 9.916 0 001.611.614zm3.492.504a13.911 13.911 0 01-2.969-.367c.205-.45.436-.859.69-1.217.673-.951 1.455-1.5 2.28-1.601v3.185zm3.533-.367a7.491 7.491 0 00-.69-1.217C9.895 1.143 9.101.592 8.266.5v3.19a13.945 13.945 0 003-.368zm.523-.137a8.143 8.143 0 00-.776-1.39 5.432 5.432 0 00-.945-1.042A8.006 8.006 0 0113.4 2.57a9.916 9.916 0 01-1.612.614zm.203.496c.278.726.494 1.527.634 2.37h3.02a8.014 8.014 0 00-1.84-3.086 10.23 10.23 0 01-1.814.716zM8.266 6.05V4.223a14.416 14.416 0 003.207-.402c.265.68.471 1.433.61 2.23H8.266zM16.03 8.5c0-.66-.08-1.301-.232-1.915H.231a7.993 7.993 0 000 3.83h15.565a7.988 7.988 0 00.232-1.915zm-6.255-.958L9.02 9.639a.267.267 0 01-.502 0L8.014 8.24l-.502 1.4a.266.266 0 01-.503 0l-.754-2.097a.268.268 0 01.504-.18l.502 1.397.501-1.398a.268.268 0 01.504 0l.501 1.398.503-1.398a.268.268 0 01.504.18zm-4.867 0l-.753 2.097a.267.267 0 01-.503 0L3.15 8.24l-.504 1.4a.267.267 0 01-.502 0l-.755-2.097a.267.267 0 11.503-.18l.502 1.397.503-1.398a.267.267 0 01.502 0l.503 1.398.502-1.398a.268.268 0 01.503.18z" fill="#DBDBE1"/></svg>